<svg id="visual" viewBox="0 0 900 200" width="900" height="200" xmlns="http://www.w3.org/2000/svg" xmlns:xlink="http://www.w3.org/1999/xlink" version="1.1"><rect x="0" y="0" width="900" height="200" fill="#4fe2c1"></rect><path d="M0 69L21.5 65.8C43 62.7 86 56.3 128.8 54.7C171.7 53 214.3 56 257.2 62.5C300 69 343 79 385.8 80.5C428.7 82 471.3 75 514.2 69.5C557 64 600 60 642.8 57.5C685.7 55 728.3 54 771.2 60.7C814 67.3 857 81.7 878.5 88.8L900 96L900 201L878.5 201C857 201 814 201 771.2 201C728.3 201 685.7 201 642.8 201C600 201 557 201 514.2 201C471.3 201 428.7 201 385.8 201C343 201 300 201 257.2 201C214.3 201 171.7 201 128.8 201C86 201 43 201 21.5 201L0 201Z" fill="#00bafe"></path><path d="M0 74L21.5 79C43 84 86 94 128.8 96C171.7 98 214.3 92 257.2 88.2C300 84.3 343 82.7 385.8 81.3C428.7 80 471.3 79 514.2 81.5C557 84 600 90 642.8 87.5C685.7 85 728.3 74 771.2 69.7C814 65.3 857 67.7 878.5 68.8L900 70L900 201L878.5 201C857 201 814 201 771.2 201C728.3 201 685.7 201 642.8 201C600 201 557 201 514.2 201C471.3 201 428.7 201 385.8 201C343 201 300 201 257.2 201C214.3 201 171.7 201 128.8 201C86 201 43 201 21.5 201L0 201Z" fill="#0088d1"></path><path d="M0 137L21.5 135C43 133 86 129 128.8 122.5C171.7 116 214.3 107 257.2 105.8C300 104.7 343 111.3 385.8 115.7C428.7 120 471.3 122 514.2 119.3C557 116.7 600 109.3 642.8 108.7C685.7 108 728.3 114 771.2 113.7C814 113.3 857 106.7 878.5 103.3L900 100L900 201L878.5 201C857 201 814 201 771.2 201C728.3 201 685.7 201 642.8 201C600 201 557 201 514.2 201C471.3 201 428.7 201 385.8 201C343 201 300 201 257.2 201C214.3 201 171.7 201 128.8 201C86 201 43 201 21.5 201L0 201Z" fill="#0059a1"></path><path d="M0 128L21.5 128.3C43 128.7 86 129.3 128.8 133.3C171.7 137.3 214.3 144.7 257.2 143.3C300 142 343 132 385.8 127.3C428.7 122.7 471.3 123.3 514.2 124C557 124.7 600 125.3 642.8 128.5C685.7 131.7 728.3 137.3 771.2 137.3C814 137.3 857 131.7 878.5 128.8L900 126L900 201L878.5 201C857 201 814 201 771.2 201C728.3 201 685.7 201 642.8 201C600 201 557 201 514.2 201C471.3 201 428.7 201 385.8 201C343 201 300 201 257.2 201C214.3 201 171.7 201 128.8 201C86 201 43 201 21.5 201L0 201Z" fill="#042d70"></path><path d="M0 155L21.5 156.2C43 157.3 86 159.7 128.8 160.7C171.7 161.7 214.3 161.3 257.2 163.8C300 166.3 343 171.7 385.8 172.2C428.7 172.7 471.3 168.3 514.2 166.2C557 164 600 164 642.8 163.2C685.7 162.3 728.3 160.7 771.2 159.5C814 158.3 857 157.7 878.5 157.3L900 157L900 201L878.5 201C857 201 814 201 771.2 201C728.3 201 685.7 201 642.8 201C600 201 557 201 514.2 201C471.3 201 428.7 201 385.8 201C343 201 300 201 257.2 201C214.3 201 171.7 201 128.8 201C86 201 43 201 21.5 201L0 201Z" fill="#04003f"></path></svg>